# xmcd
#
# Track frame offsets:
# 150
# 11905
# 25214
# 41123
# 64899
# 75156
# 93411
# 109165
# 123200
# 138037
# 151959
# 168893
#
# Disc length: 2579 seconds
#
# Revision: 0
# Processed by: cddbd v1.5.2PL0 Copyright (c) Steve Scherf et al.
# Submitted via: Audion 3.0.2 (http://www.panic.com/audion/)
#
DISCID=8c0a110c
DTITLE=The Captain's Crew Featuring George Hamilton IV - Tenderly Calling - The Songs of Fanny Crosby
DYEAR=1900
DGENRE=
TTITLE0=Draw Me Nearer
TTITLE1=All The Way
TTITLE2=Jesus is Calling
TTITLE3=He Hideth My Soul
TTITLE4=I Shall Know Him
TTITLE5=Near The Cross
TTITLE6=Rescue The Perishing
TTITLE7=Praise Him
TTITLE8=To God Be The Glory
TTITLE9=Tell Me The Story of Jesus
TTITLE10=Pass Me Not
TTITLE11=Blessed Assurance
EXTD=
EXTT0=
EXTT1=
EXTT2=
EXTT3=
EXTT4=
EXTT5=
EXTT6=
EXTT7=
EXTT8=
EXTT9=
EXTT10=
EXTT11=
PLAYORDER=
